<svg xmlns="http://www.w3.org/2000/svg" version="1.1" xmlns:xlink="http://www.w3.org/1999/xlink" xmlns:svgjs="http://svgjs.dev/svgjs" width="1000" height="1000" viewBox="0 0 1000 1000"><rect width="1000" height="1000" fill="#ffffff"></rect><g transform="matrix(0.7,0,0,0.7,149.65497961784848,279.3288259109312)"><svg viewBox="0 0 391 247" data-background-color="#77d4fc" preserveAspectRatio="xMidYMid meet" height="631" width="1000" xmlns="http://www.w3.org/2000/svg" xmlns:xlink="http://www.w3.org/1999/xlink"><defs></defs><g id="tight-bounds" transform="matrix(1,0,0,1,0.19271852774463127,-0.09999999999999432)"><svg viewBox="0 0 390.61456294451074 247.2" height="247.2" width="390.61456294451074"><g><svg viewBox="0 0 395.52 250.30440048874777" height="247.2" width="390.61456294451074"><g transform="matrix(1,0,0,1,0,182.60394348809083)"><svg viewBox="0 0 395.52 67.70045700065695" height="67.70045700065695" width="395.52"><g><svg viewBox="0 0 395.52 67.70045700065695" height="67.70045700065695" width="395.52"><g><svg viewBox="0 0 395.52 38.97112950600801" height="38.97112950600801" width="395.52"><g transform="matrix(1,0,0,1,0,0)"><svg width="395.52" viewBox="2 -35.900001525878906 374.4800109863281 36.900001525878906" height="38.97112950600801" data-palette-color="#0080ff"><path d="M31.1 0.8L31.1 0.8 9-28.8 9-3.7Q9-1.5 12.1-1.5L12.1-1.5 14-1.5 14 0 2 0 2-1.5 3.6-1.5Q6.7-1.5 6.7-3.7L6.7-3.7 6.7-31.3Q6.7-33.5 3.6-33.5L3.6-33.5 2-33.5 2-35 9.9-35 30.5-7.3 30.5-31.3Q30.5-33.5 27.5-33.5L27.5-33.5 25.8-33.5 25.8-35 37.8-35 37.8-33.5 35.9-33.5Q32.8-33.5 32.8-31.3L32.8-31.3 32.8-0.2Q32.25-0.2 31.63 0.28 31 0.75 31.1 0.8ZM70.4-6.9L68.7 0 41.9 0 41.9-1.4 43.6-1.4Q45.05-1.4 45.52-1.95 46-2.5 46-3.7L46-3.7 46-31.3Q46-32.3 45.37-32.95 44.75-33.6 43.6-33.6L43.6-33.6 41.9-33.6 41.9-35 68.3-35 68.7-28.1 67.3-27.8Q67.3-29.6 65.85-31.25 64.4-32.9 61.8-32.9L61.8-32.9 52.7-32.9Q51.2-32.9 50.75-32.33 50.3-31.75 50.3-30.7L50.3-30.7 50.3-19.3 60.3-19.3Q61.05-19.3 61.45-19.38 61.85-19.45 62.17-19.9 62.5-20.35 62.5-21.2L62.5-21.2 62.5-23.5 64-23.5 64-13.1 62.5-13.1 62.5-15.2Q62.5-16.45 61.95-16.82 61.4-17.2 60.3-17.2L60.3-17.2 50.3-17.2 50.3-4.3Q50.3-3.25 50.75-2.68 51.2-2.1 52.7-2.1L52.7-2.1 62.2-2.1Q64.85-2.1 66.87-3.8 68.9-5.5 69-7.1L69-7.1 70.4-6.9ZM110.4-2.4L107.8 0.7 107 1 98.7-22.9 91.6-2.4 89 0.7 88.2 1 77-31.3Q76.55-32.4 75.97-32.95 75.4-33.5 74.2-33.5L74.2-33.5 72.5-33.5 72.5-35 84.9-35 84.9-33.5 83.7-33.5Q81.5-33.5 81.5-32.2L81.5-32.2Q81.5-31.8 81.9-30.7L81.9-30.7 90.6-5.4 97.7-25.9 95.8-31.3Q95.2-32.9 94.75-33.2 94.3-33.5 93.5-33.5L93.5-33.5 93.1-33.5 93.1-35 104.3-35 104.3-33.5 102.5-33.5Q100.2-33.5 100.2-32.3L100.2-32.3Q100.2-31.7 100.6-30.7L100.6-30.7 109.4-5.4 118-30.1Q118.6-32.1 118.6-32.63 118.6-33.15 117.92-33.33 117.25-33.5 115.2-33.5L115.2-33.5 114.5-33.5 114.5-35 124.3-35 124.3-33.5 123.4-33.5Q121.8-33.5 121.3-33.05 120.8-32.6 120.3-31.1L120.3-31.1 110.4-2.4ZM126.39-2.4L126.39-2.4 127.09-8.9 128.79-8.8Q128.79-6.05 132.07-4.38 135.34-2.7 139.52-2.7 143.69-2.7 145.79-3.98 147.89-5.25 147.89-7.2L147.89-7.2Q147.89-10.5 144.39-13.1L144.39-13.1Q142.94-14.15 141.34-14.95L141.34-14.95Q137.69-16.85 136.77-17.38 135.84-17.9 134.69-18.45 133.54-19 132.57-19.63 131.59-20.25 130.49-21.15L130.49-21.15Q127.99-23.15 127.99-25.63 127.99-28.1 128.87-29.95 129.74-31.8 131.07-32.85 132.39-33.9 134.19-34.6L134.19-34.6Q137.24-35.7 141.02-35.7 144.79-35.7 148.29-33.8L148.29-33.8 147.69-28 145.99-28Q145.99-32.7 138.09-32.7L138.09-32.7Q134.44-32.7 132.62-31.55 130.79-30.4 130.79-28.4L130.79-28.4Q130.79-25.2 141.19-20.7L141.19-20.7Q148.04-17.75 149.94-14.15L149.94-14.15Q150.89-12.35 150.89-10.2L150.89-10.2Q150.89-5 146.72-2.15 142.54 0.7 136.64 0.7 130.74 0.7 126.39-2.4ZM186.99-29.9L175.79-0.5Q175.74-0.5 175.54-0.5 175.34-0.5 173.99 0.5L173.99 0.5 162.49-29.6 160.09-3.4Q159.99-2.6 160.84-2.05 161.69-1.5 163.19-1.5L163.19-1.5 165.29-1.5 165.29 0 153.29 0 153.29-1.5 154.89-1.5Q157.79-1.5 157.99-3.7L157.99-3.7 160.49-31.3Q160.59-32.25 159.82-32.88 159.04-33.5 157.39-33.5L157.39-33.5 155.79-33.5 155.79-35 165.19-35 175.89-6.8 186.69-35 195.69-35 195.69-33.6 193.69-33.6Q191.29-33.6 191.29-31.75L191.29-31.75Q191.29-31.6 191.29-31.4L191.29-31.4 193.59-3.7Q193.69-2.55 194.17-2.02 194.64-1.5 195.89-1.5L195.89-1.5 197.89-1.5 197.89 0 185.09 0 185.09-1.5 186.79-1.5Q188.19-1.5 188.69-1.95 189.19-2.4 189.19-2.93 189.19-3.45 189.19-3.7L189.19-3.7 186.99-29.9ZM215.89 1L215.89 1Q209.34 1 204.96-4.05 200.59-9.1 200.59-15.7L200.59-15.7Q200.59-19.8 202.39-23.6 204.19-27.4 207.01-30.05 209.84-32.7 213.26-34.3 216.69-35.9 219.89-35.9L219.89-35.9Q226.39-35.9 230.79-30.85 235.19-25.8 235.19-19.2L235.19-19.2Q235.19-14.3 232.54-9.63 229.89-4.95 225.36-1.98 220.84 1 215.89 1ZM218.99-2.8L218.99-2.8Q224.44-2.8 228.16-6.8 231.89-10.8 231.89-16.7 231.89-22.6 227.56-27.3 223.24-32 217.09-32L217.09-32Q211.84-32 207.86-28.23 203.89-24.45 203.89-19.2L203.89-19.2Q203.89-12.4 208.06-7.6 212.24-2.8 218.99-2.8ZM268.09 0.8L268.09 0.8 245.99-28.8 245.99-3.7Q245.99-1.5 249.09-1.5L249.09-1.5 250.99-1.5 250.99 0 238.99 0 238.99-1.5 240.59-1.5Q243.69-1.5 243.69-3.7L243.69-3.7 243.69-31.3Q243.69-33.5 240.59-33.5L240.59-33.5 238.99-33.5 238.99-35 246.89-35 267.49-7.3 267.49-31.3Q267.49-33.5 264.49-33.5L264.49-33.5 262.79-33.5 262.79-35 274.79-35 274.79-33.5 272.88-33.5Q269.79-33.5 269.79-31.3L269.79-31.3 269.79-0.2Q269.24-0.2 268.61 0.28 267.99 0.75 268.09 0.8ZM311.48-1.5L311.48 0 300.08 0 300.08-1.5 300.98-1.5Q301.78-1.5 301.78-1.9L301.78-1.9Q301.78-2.1 300.98-3.3L300.98-3.3 290.78-19.1 287.28-15.6 287.28-3.7Q287.28-2.95 287.38-2.55 287.48-2.15 288.03-1.83 288.58-1.5 289.68-1.5L289.68-1.5 291.58-1.5 291.58 0 278.88 0 278.88-1.5 280.48-1.5Q281.58-1.5 282.13-1.83 282.68-2.15 282.78-2.55 282.88-2.95 282.88-3.7L282.88-3.7 282.88-31.3Q282.88-32.05 282.78-32.45 282.68-32.85 282.13-33.18 281.58-33.5 280.48-33.5L280.48-33.5 278.88-33.5 278.88-35 291.58-35 291.58-33.5 289.68-33.5Q288.58-33.5 288.03-33.18 287.48-32.85 287.38-32.45 287.28-32.05 287.28-31.3L287.28-31.3 287.28-18.3 300.18-30.9Q301.18-31.8 301.18-32.5L301.18-32.5Q301.18-33.5 299.68-33.5L299.68-33.5 298.78-33.5 298.78-35 308.68-35 308.68-33.5 307.88-33.5Q306.98-33.5 305.28-32.55 303.58-31.6 302.38-30.4L302.38-30.4 293.88-22 305.18-5Q305.78-4.2 306.28-3.4L306.28-3.4Q307.78-1.5 310.28-1.5L310.28-1.5 311.48-1.5ZM342.88-6.9L341.18 0 314.38 0 314.38-1.4 316.08-1.4Q317.53-1.4 318-1.95 318.48-2.5 318.48-3.7L318.48-3.7 318.48-31.3Q318.48-32.3 317.86-32.95 317.23-33.6 316.08-33.6L316.08-33.6 314.38-33.6 314.38-35 340.78-35 341.18-28.1 339.78-27.8Q339.78-29.6 338.33-31.25 336.88-32.9 334.28-32.9L334.28-32.9 325.18-32.9Q323.68-32.9 323.23-32.33 322.78-31.75 322.78-30.7L322.78-30.7 322.78-19.3 332.78-19.3Q333.53-19.3 333.93-19.38 334.33-19.45 334.65-19.9 334.98-20.35 334.98-21.2L334.98-21.2 334.98-23.5 336.48-23.5 336.48-13.1 334.98-13.1 334.98-15.2Q334.98-16.45 334.43-16.82 333.88-17.2 332.78-17.2L332.78-17.2 322.78-17.2 322.78-4.3Q322.78-3.25 323.23-2.68 323.68-2.1 325.18-2.1L325.18-2.1 334.68-2.1Q337.33-2.1 339.36-3.8 341.38-5.5 341.48-7.1L341.48-7.1 342.88-6.9ZM367.78-1.4L367.78 0 355.08 0 355.08-1.4 356.68-1.4Q358.18-1.4 358.68-2 359.18-2.6 359.18-3.6L359.18-3.6 359.18-14.5 351.78-29.3Q349.73-33.6 346.48-33.6L346.48-33.6 345.38-33.6 345.38-35 356.68-35 356.68-33.6 356.08-33.6Q355.28-33.6 355.28-33.1 355.28-32.6 355.88-31.5L355.88-31.5 362.18-18.1 368.58-31.5Q369.18-32.7 369.18-33L369.18-33Q369.18-33.6 367.68-33.6L367.68-33.6 366.38-33.6 366.38-35 376.48-35 376.48-33.6 375.68-33.6Q371.93-33.6 370.28-30.1L370.28-30.1 363.48-16.5 363.48-3.6Q363.48-2.6 363.98-2 364.48-1.4 365.98-1.4L365.98-1.4 367.78-1.4Z" opacity="1" transform="matrix(1,0,0,1,0,0)" fill="#000000" class="undefined-text-0" data-fill-palette-color="primary" id="text-0"></path></svg></g></svg></g><g transform="matrix(1,0,0,1,75.54432,48.17127787526836)"><svg viewBox="0 0 244.43135999999998 19.5291791253886" height="19.5291791253886" width="244.43135999999998"><g transform="matrix(1,0,0,1,0,0)"><svg width="244.43135999999998" viewBox="0.6500000357627869 -38.150001525878906 482.44000244140625 38.55000305175781" height="19.5291791253886" data-palette-color="#0023ff"><path d="M11.95 0L11.95 0Q11.3 0 10.8-0.33 10.3-0.65 10.3-1.3L10.3-1.3 10.3-33.45 1.9-33.45Q1.3-33.45 0.98-33.93 0.65-34.4 0.65-35L0.65-35Q0.65-35.6 0.98-36.08 1.3-36.55 1.9-36.55L1.9-36.55 21.95-36.55Q22.6-36.55 22.9-36.1 23.2-35.65 23.2-35.05L23.2-35.05Q23.2-34.45 22.9-33.95 22.6-33.45 21.95-33.45L21.95-33.45 13.6-33.45 13.6-1.3Q13.6-0.65 13.08-0.33 12.55 0 11.95 0ZM28.6 0L28.6 0Q27.95 0 27.47-0.4 27-0.8 27-1.3L27-1.3 27-36.95Q27-37.5 27.47-37.83 27.95-38.15 28.6-38.15L28.6-38.15Q29.3-38.15 29.77-37.83 30.25-37.5 30.25-36.95L30.25-36.95 30.25-20.15Q31.1-21.6 32.75-22.78 34.4-23.95 36.85-23.95L36.85-23.95Q39.25-23.95 41.27-22.68 43.3-21.4 44.5-19.3 45.7-17.2 45.7-14.6L45.7-14.6 45.7-1.3Q45.7-0.65 45.2-0.33 44.7 0 44.05 0L44.05 0Q43.5 0 42.97-0.33 42.45-0.65 42.45-1.3L42.45-1.3 42.45-14.6Q42.45-16.2 41.6-17.65 40.75-19.1 39.35-20.03 37.95-20.95 36.25-20.95L36.25-20.95Q34.75-20.95 33.37-20.18 32-19.4 31.12-18 30.25-16.6 30.25-14.6L30.25-14.6 30.25-1.3Q30.25-0.8 29.77-0.4 29.3 0 28.6 0ZM61.59 0.35L61.59 0.35Q58.45 0.35 56.02-0.85 53.59-2.05 52.22-4.17 50.84-6.3 50.84-9.15L50.84-9.15 50.84-14.75Q50.84-17.25 52.14-19.35 53.45-21.45 55.62-22.7 57.8-23.95 60.39-23.95L60.39-23.95Q62.89-23.95 65.02-22.78 67.14-21.6 68.44-19.55 69.75-17.5 69.75-14.85L69.75-14.85Q69.75-12.9 69.09-12.08 68.44-11.25 67.47-11.05 66.5-10.85 65.39-10.85L65.39-10.85 54.09-10.85 54.09-9Q54.09-6 56.24-4.25 58.39-2.5 61.7-2.5L61.7-2.5Q63.7-2.5 64.8-3 65.89-3.5 66.52-4 67.14-4.5 67.69-4.5L67.69-4.5Q68.09-4.5 68.42-4.23 68.75-3.95 68.92-3.6 69.09-3.25 69.09-2.95L69.09-2.95Q69.09-2.4 68.19-1.6 67.3-0.8 65.59-0.23 63.89 0.35 61.59 0.35ZM54.09-15.15L54.09-13.25 64.09-13.25Q65.59-13.25 66.09-13.58 66.59-13.9 66.59-14.95L66.59-14.95Q66.59-16.55 65.82-18 65.05-19.45 63.62-20.35 62.2-21.25 60.34-21.25L60.34-21.25Q58.64-21.25 57.22-20.43 55.8-19.6 54.95-18.23 54.09-16.85 54.09-15.15L54.09-15.15ZM86.94 0L86.94 0Q86.29 0 85.79-0.3 85.29-0.6 85.29-1.25L85.29-1.25 85.29-35.3Q85.29-35.9 85.77-36.23 86.24-36.55 86.79-36.55L86.79-36.55 104.49-36.55Q105.14-36.55 105.44-36.08 105.74-35.6 105.74-35.1L105.74-35.1Q105.74-34.45 105.42-33.98 105.09-33.5 104.49-33.5L104.49-33.5 88.59-33.5 88.59-19.75 96.49-19.75Q97.04-19.75 97.37-19.3 97.69-18.85 97.69-18.25L97.69-18.25Q97.69-17.8 97.42-17.35 97.14-16.9 96.49-16.9L96.49-16.9 88.59-16.9 88.59-1.25Q88.59-0.6 88.07-0.3 87.54 0 86.94 0ZM106.79 0.35L106.79 0.35Q103.99 0.35 101.99-1.28 99.99-2.9 99.99-6.25L99.99-6.25Q99.99-9 101.46-10.48 102.94-11.95 105.56-12.53 108.19-13.1 111.64-13.1L111.64-13.1 114.19-13.1 114.19-14.3Q114.19-15.9 113.61-17.48 113.04-19.05 111.76-20.08 110.49-21.1 108.29-21.1L108.29-21.1Q106.64-21.1 105.59-20.75 104.54-20.4 103.94-20.03 103.34-19.65 102.94-19.65L102.94-19.65Q102.34-19.65 101.99-20.25 101.64-20.85 101.64-21.4L101.64-21.4Q101.64-22.05 102.66-22.63 103.69-23.2 105.26-23.58 106.84-23.95 108.39-23.95L108.39-23.95Q111.74-23.95 113.71-22.58 115.69-21.2 116.56-19 117.44-16.8 117.44-14.3L117.44-14.3 117.44-1.3Q117.44-0.75 117.01-0.38 116.59 0 115.84 0L115.84 0Q115.24 0 114.79-0.38 114.34-0.75 114.34-1.3L114.34-1.3 114.34-3.5Q113.04-2.05 111.19-0.85 109.34 0.35 106.79 0.35ZM107.59-2.4L107.59-2.4Q109.24-2.4 110.74-3.25 112.24-4.1 113.21-5.33 114.19-6.55 114.19-7.65L114.19-7.65 114.19-10.85 112.09-10.85Q109.84-10.85 107.81-10.58 105.79-10.3 104.51-9.4 103.24-8.5 103.24-6.55L103.24-6.55Q103.24-4.4 104.51-3.4 105.79-2.4 107.59-2.4ZM129.89 0.35L129.89 0.35Q127.54 0.35 125.79-0.25 124.04-0.85 123.04-1.68 122.04-2.5 122.04-3.25L122.04-3.25Q122.04-3.6 122.19-3.93 122.34-4.25 122.61-4.5 122.89-4.75 123.19-4.75L123.19-4.75Q123.74-4.75 124.41-4.17 125.09-3.6 126.31-3 127.54-2.4 129.79-2.4L129.79-2.4Q132.64-2.4 133.79-3.48 134.94-4.55 134.94-5.95L134.94-5.95Q134.94-7.6 134.06-8.53 133.19-9.45 131.76-9.98 130.34-10.5 128.76-10.93 127.19-11.35 125.76-12.03 124.34-12.7 123.46-13.9 122.59-15.1 122.59-17.15L122.59-17.15Q122.59-18.75 123.39-20.33 124.19-21.9 125.91-22.93 127.64-23.95 130.49-23.95L130.49-23.95Q132.14-23.95 133.69-23.6 135.24-23.25 136.21-22.68 137.19-22.1 137.19-21.5L137.19-21.5Q137.19-21.25 137.01-20.85 136.84-20.45 136.54-20.13 136.24-19.8 135.84-19.8L135.84-19.8Q135.44-19.8 134.76-20.18 134.09-20.55 133.04-20.88 131.99-21.2 130.54-21.2L130.54-21.2Q128.74-21.2 127.64-20.55 126.54-19.9 126.04-19.03 125.54-18.15 125.54-17.3L125.54-17.3Q125.54-15.85 126.44-15.1 127.34-14.35 128.76-13.88 130.19-13.4 131.76-12.98 133.34-12.55 134.76-11.8 136.19-11.05 137.06-9.7 137.94-8.35 137.94-6.1L137.94-6.1Q137.94-3.15 135.84-1.4 133.74 0.35 129.89 0.35ZM152.03 0L150.63 0Q146.78 0 144.73-1.75 142.68-3.5 142.68-7.35L142.68-7.35 142.68-33.7Q142.68-34.25 143.21-34.58 143.73-34.9 144.28-34.9L144.28-34.9Q144.93-34.9 145.43-34.58 145.93-34.25 145.93-33.7L145.93-33.7 145.93-23.65 152.43-23.65Q152.93-23.65 153.23-23.25 153.53-22.85 153.53-22.3L153.53-22.3Q153.53-21.75 153.23-21.35 152.93-20.95 152.43-20.95L152.43-20.95 145.93-20.95 145.93-7.35Q145.93-4.9 146.98-3.93 148.03-2.95 150.63-2.95L150.63-2.95 152.03-2.95Q152.73-2.95 153.11-2.53 153.48-2.1 153.48-1.5L153.48-1.5Q153.48-0.9 153.11-0.45 152.73 0 152.03 0L152.03 0ZM166.98 0.35L166.98 0.35Q163.83 0.35 161.41-0.85 158.98-2.05 157.61-4.17 156.23-6.3 156.23-9.15L156.23-9.15 156.23-14.75Q156.23-17.25 157.53-19.35 158.83-21.45 161.01-22.7 163.18-23.95 165.78-23.95L165.78-23.95Q168.28-23.95 170.41-22.78 172.53-21.6 173.83-19.55 175.13-17.5 175.13-14.85L175.13-14.85Q175.13-12.9 174.48-12.08 173.83-11.25 172.86-11.05 171.88-10.85 170.78-10.85L170.78-10.85 159.48-10.85 159.48-9Q159.48-6 161.63-4.25 163.78-2.5 167.08-2.5L167.08-2.5Q169.08-2.5 170.18-3 171.28-3.5 171.91-4 172.53-4.5 173.08-4.5L173.08-4.5Q173.48-4.5 173.81-4.23 174.13-3.95 174.31-3.6 174.48-3.25 174.48-2.95L174.48-2.95Q174.48-2.4 173.58-1.6 172.68-0.8 170.98-0.23 169.28 0.35 166.98 0.35ZM159.48-15.15L159.48-13.25 169.48-13.25Q170.98-13.25 171.48-13.58 171.98-13.9 171.98-14.95L171.98-14.95Q171.98-16.55 171.21-18 170.43-19.45 169.01-20.35 167.58-21.25 165.73-21.25L165.73-21.25Q164.03-21.25 162.61-20.43 161.18-19.6 160.33-18.23 159.48-16.85 159.48-15.15L159.48-15.15ZM186.43 0.35L186.43 0.35Q184.08 0.35 182.33-0.25 180.58-0.85 179.58-1.68 178.58-2.5 178.58-3.25L178.58-3.25Q178.58-3.6 178.73-3.93 178.88-4.25 179.15-4.5 179.43-4.75 179.73-4.75L179.73-4.75Q180.28-4.75 180.95-4.17 181.63-3.6 182.85-3 184.08-2.4 186.33-2.4L186.33-2.4Q189.18-2.4 190.33-3.48 191.48-4.55 191.48-5.95L191.48-5.95Q191.48-7.6 190.6-8.53 189.73-9.45 188.3-9.98 186.88-10.5 185.3-10.93 183.73-11.35 182.3-12.03 180.88-12.7 180-13.9 179.13-15.1 179.13-17.15L179.13-17.15Q179.13-18.75 179.93-20.33 180.73-21.9 182.45-22.93 184.18-23.95 187.03-23.95L187.03-23.95Q188.68-23.95 190.23-23.6 191.78-23.25 192.75-22.68 193.73-22.1 193.73-21.5L193.73-21.5Q193.73-21.25 193.55-20.85 193.38-20.45 193.08-20.13 192.78-19.8 192.38-19.8L192.38-19.8Q191.98-19.8 191.3-20.18 190.63-20.55 189.58-20.88 188.53-21.2 187.08-21.2L187.08-21.2Q185.28-21.2 184.18-20.55 183.08-19.9 182.58-19.03 182.08-18.15 182.08-17.3L182.08-17.3Q182.08-15.85 182.98-15.1 183.88-14.35 185.3-13.88 186.73-13.4 188.3-12.98 189.88-12.55 191.3-11.8 192.73-11.05 193.6-9.7 194.48-8.35 194.48-6.1L194.48-6.1Q194.48-3.15 192.38-1.4 190.28 0.35 186.43 0.35ZM208.58 0L207.18 0Q203.33 0 201.28-1.75 199.23-3.5 199.23-7.35L199.23-7.35 199.23-33.7Q199.23-34.25 199.75-34.58 200.28-34.9 200.83-34.9L200.83-34.9Q201.48-34.9 201.98-34.58 202.48-34.25 202.48-33.7L202.48-33.7 202.48-23.65 208.98-23.65Q209.48-23.65 209.78-23.25 210.08-22.85 210.08-22.3L210.08-22.3Q210.08-21.75 209.78-21.35 209.48-20.95 208.98-20.95L208.98-20.95 202.48-20.95 202.48-7.35Q202.48-4.9 203.53-3.93 204.58-2.95 207.18-2.95L207.18-2.95 208.58-2.95Q209.28-2.95 209.65-2.53 210.03-2.1 210.03-1.5L210.03-1.5Q210.03-0.9 209.65-0.45 209.28 0 208.58 0L208.58 0ZM226.42 0L226.42 0Q225.77 0 225.27-0.33 224.77-0.65 224.77-1.3L224.77-1.3 224.77-35.3Q224.77-36 225.27-36.27 225.77-36.55 226.42-36.55L226.42-36.55Q227.02-36.55 227.47-36.23 227.92-35.9 228.32-35.4 228.72-34.9 229.02-34.25L229.02-34.25 242.52-7.65 242.52-35.35Q242.52-36 243.02-36.27 243.52-36.55 244.17-36.55L244.17-36.55Q244.77-36.55 245.3-36.27 245.82-36 245.82-35.35L245.82-35.35 245.82-1.3Q245.82-0.65 245.3-0.33 244.77 0 244.17 0L244.17 0Q243.47 0 242.92-0.6 242.37-1.2 241.97-1.9L241.97-1.9 228.07-28.95 228.07-1.3Q228.07-0.65 227.55-0.33 227.02 0 226.42 0ZM262.42 0.35L262.42 0.35Q259.27 0.35 256.84-0.85 254.42-2.05 253.04-4.17 251.67-6.3 251.67-9.15L251.67-9.15 251.67-14.75Q251.67-17.25 252.97-19.35 254.27-21.45 256.44-22.7 258.62-23.95 261.22-23.95L261.22-23.95Q263.72-23.95 265.84-22.78 267.97-21.6 269.27-19.55 270.57-17.5 270.57-14.85L270.57-14.85Q270.57-12.9 269.92-12.08 269.27-11.25 268.29-11.05 267.32-10.85 266.22-10.85L266.22-10.85 254.92-10.85 254.92-9Q254.92-6 257.07-4.25 259.22-2.5 262.52-2.5L262.52-2.5Q264.52-2.5 265.62-3 266.72-3.5 267.34-4 267.97-4.5 268.52-4.5L268.52-4.5Q268.92-4.5 269.24-4.23 269.57-3.95 269.74-3.6 269.92-3.25 269.92-2.95L269.92-2.95Q269.92-2.4 269.02-1.6 268.12-0.8 266.42-0.23 264.72 0.35 262.42 0.35ZM254.92-15.15L254.92-13.25 264.92-13.25Q266.42-13.25 266.92-13.58 267.42-13.9 267.42-14.95L267.42-14.95Q267.42-16.55 266.64-18 265.87-19.45 264.44-20.35 263.02-21.25 261.17-21.25L261.17-21.25Q259.47-21.25 258.04-20.43 256.62-19.6 255.77-18.23 254.92-16.85 254.92-15.15L254.92-15.15ZM282.42 0.4L282.42 0.4Q281.92 0.4 281.59 0.18 281.27-0.05 281.07-0.6L281.07-0.6 273.27-21.55Q273.22-21.7 273.14-21.93 273.07-22.15 273.07-22.3L273.07-22.3Q273.07-22.7 273.37-23.03 273.67-23.35 274.12-23.55 274.57-23.75 275.02-23.75L275.02-23.75Q275.37-23.75 275.72-23.55 276.07-23.35 276.17-23L276.17-23 282.57-5.2 287.72-21.45Q287.87-21.9 288.19-22.1 288.52-22.3 289.02-22.3L289.02-22.3Q289.47-22.3 289.82-22.1 290.17-21.9 290.32-21.45L290.32-21.45 295.27-5 301.82-23Q302.02-23.75 302.92-23.75L302.92-23.75Q303.37-23.75 303.82-23.58 304.27-23.4 304.57-23.08 304.87-22.75 304.87-22.3L304.87-22.3Q304.87-22.15 304.79-21.9 304.72-21.65 304.67-21.55L304.67-21.55 296.87-0.4Q296.72 0.05 296.34 0.23 295.97 0.4 295.57 0.4L295.57 0.4Q295.07 0.4 294.74 0.2 294.42 0 294.22-0.35L294.22-0.35 289.02-16.6 283.87-0.6Q283.72-0.1 283.32 0.15 282.92 0.4 282.42 0.4ZM315.16 0.35L315.16 0.35Q312.81 0.35 311.06-0.25 309.31-0.85 308.31-1.68 307.31-2.5 307.31-3.25L307.31-3.25Q307.31-3.6 307.46-3.93 307.61-4.25 307.89-4.5 308.16-4.75 308.46-4.75L308.46-4.75Q309.01-4.75 309.69-4.17 310.36-3.6 311.59-3 312.81-2.4 315.06-2.4L315.06-2.4Q317.91-2.4 319.06-3.48 320.21-4.55 320.21-5.95L320.21-5.95Q320.21-7.6 319.34-8.53 318.46-9.45 317.04-9.98 315.61-10.5 314.04-10.93 312.46-11.35 311.04-12.03 309.61-12.7 308.74-13.9 307.86-15.1 307.86-17.15L307.86-17.15Q307.86-18.75 308.66-20.33 309.46-21.9 311.19-22.93 312.91-23.95 315.76-23.95L315.76-23.95Q317.41-23.95 318.96-23.6 320.51-23.25 321.49-22.68 322.46-22.1 322.46-21.5L322.46-21.5Q322.46-21.25 322.29-20.85 322.11-20.45 321.81-20.13 321.51-19.8 321.11-19.8L321.11-19.8Q320.71-19.8 320.04-20.18 319.36-20.55 318.31-20.88 317.26-21.2 315.81-21.2L315.81-21.2Q314.01-21.2 312.91-20.55 311.81-19.9 311.31-19.03 310.81-18.15 310.81-17.3L310.81-17.3Q310.81-15.85 311.71-15.1 312.61-14.35 314.04-13.88 315.46-13.4 317.04-12.98 318.61-12.55 320.04-11.8 321.46-11.05 322.34-9.7 323.21-8.35 323.21-6.1L323.21-6.1Q323.21-3.15 321.11-1.4 319.01 0.35 315.16 0.35ZM347.86 0.3L347.86 0.3Q347.21 0.3 346.66 0 346.11-0.3 345.91-0.9L345.91-0.9 336.06-34.8Q335.96-35 335.96-35.2L335.96-35.2Q335.96-35.6 336.26-35.93 336.56-36.25 337.01-36.4 337.46-36.55 337.86-36.55L337.86-36.55Q338.31-36.55 338.71-36.35 339.11-36.15 339.21-35.7L339.21-35.7 347.86-5 352.81-23.65Q353.01-24.3 353.51-24.55 354.01-24.8 354.61-24.8L354.61-24.8Q355.21-24.8 355.66-24.55 356.11-24.3 356.26-23.65L356.26-23.65 361.31-5 369.91-35.7Q370.06-36.15 370.43-36.35 370.81-36.55 371.26-36.55L371.26-36.55Q371.76-36.55 372.16-36.4 372.56-36.25 372.86-35.93 373.16-35.6 373.16-35.2L373.16-35.2Q373.16-35 373.11-34.8L373.11-34.8 363.31-0.9Q363.11-0.3 362.56 0 362.01 0.3 361.31 0.3L361.31 0.3Q360.66 0.3 360.08 0 359.51-0.3 359.36-0.9L359.36-0.9 354.61-18.55 349.86-0.9Q349.71-0.3 349.13 0 348.56 0.3 347.86 0.3ZM384.76 0.35L384.76 0.35Q381.61 0.35 379.18-0.85 376.76-2.05 375.38-4.17 374.01-6.3 374.01-9.15L374.01-9.15 374.01-14.75Q374.01-17.25 375.31-19.35 376.61-21.45 378.78-22.7 380.96-23.95 383.56-23.95L383.56-23.95Q386.06-23.95 388.18-22.78 390.31-21.6 391.61-19.55 392.91-17.5 392.91-14.85L392.91-14.85Q392.91-12.9 392.26-12.08 391.61-11.25 390.63-11.05 389.66-10.85 388.56-10.85L388.56-10.85 377.26-10.85 377.26-9Q377.26-6 379.41-4.25 381.56-2.5 384.86-2.5L384.86-2.5Q386.86-2.5 387.96-3 389.06-3.5 389.68-4 390.31-4.5 390.86-4.5L390.86-4.5Q391.26-4.5 391.58-4.23 391.91-3.95 392.08-3.6 392.26-3.25 392.26-2.95L392.26-2.95Q392.26-2.4 391.36-1.6 390.46-0.8 388.76-0.23 387.06 0.35 384.76 0.35ZM377.26-15.15L377.26-13.25 387.26-13.25Q388.76-13.25 389.26-13.58 389.76-13.9 389.76-14.95L389.76-14.95Q389.76-16.55 388.98-18 388.21-19.45 386.78-20.35 385.36-21.25 383.51-21.25L383.51-21.25Q381.81-21.25 380.38-20.43 378.96-19.6 378.11-18.23 377.26-16.85 377.26-15.15L377.26-15.15ZM407.8 0.35L407.8 0.35Q405.45 0.35 403.6-0.8 401.75-1.95 400.95-3.5L400.95-3.5 400.95-1.3Q400.95-0.8 400.5-0.4 400.05 0 399.4 0L399.4 0Q398.75 0 398.28-0.4 397.8-0.8 397.8-1.3L397.8-1.3 397.8-36.95Q397.8-37.5 398.28-37.83 398.75-38.15 399.4-38.15L399.4-38.15Q400.1-38.15 400.58-37.83 401.05-37.5 401.05-36.95L401.05-36.95 401.05-20.15Q401.9-21.6 403.58-22.78 405.25-23.95 407.7-23.95L407.7-23.95Q410.15-23.95 412.18-22.68 414.2-21.4 415.43-19.3 416.65-17.2 416.65-14.6L416.65-14.6 416.65-9.15Q416.65-6.7 415.43-4.5 414.2-2.3 412.2-0.98 410.2 0.35 407.8 0.35ZM407.2-2.65L407.2-2.65Q408.9-2.65 410.3-3.58 411.7-4.5 412.55-6 413.4-7.5 413.4-9.15L413.4-9.15 413.4-14.6Q413.4-16.2 412.55-17.65 411.7-19.1 410.3-20.03 408.9-20.95 407.15-20.95L407.15-20.95Q405.65-20.95 404.25-20.18 402.85-19.4 401.95-18 401.05-16.6 401.05-14.6L401.05-14.6 401.05-7.6Q401.05-6.85 401.88-5.68 402.7-4.5 404.1-3.58 405.5-2.65 407.2-2.65ZM428.4 0.35L428.4 0.35Q426.05 0.35 424.3-0.25 422.55-0.85 421.55-1.68 420.55-2.5 420.55-3.25L420.55-3.25Q420.55-3.6 420.7-3.93 420.85-4.25 421.13-4.5 421.4-4.75 421.7-4.75L421.7-4.75Q422.25-4.75 422.93-4.17 423.6-3.6 424.83-3 426.05-2.4 428.3-2.4L428.3-2.4Q431.15-2.4 432.3-3.48 433.45-4.55 433.45-5.95L433.45-5.95Q433.45-7.6 432.58-8.53 431.7-9.45 430.28-9.98 428.85-10.5 427.28-10.93 425.7-11.35 424.28-12.03 422.85-12.7 421.98-13.9 421.1-15.1 421.1-17.15L421.1-17.15Q421.1-18.75 421.9-20.33 422.7-21.9 424.43-22.93 426.15-23.95 429-23.95L429-23.95Q430.65-23.95 432.2-23.6 433.75-23.25 434.73-22.68 435.7-22.1 435.7-21.5L435.7-21.5Q435.7-21.25 435.53-20.85 435.35-20.45 435.05-20.13 434.75-19.8 434.35-19.8L434.35-19.8Q433.95-19.8 433.28-20.18 432.6-20.55 431.55-20.88 430.5-21.2 429.05-21.2L429.05-21.2Q427.25-21.2 426.15-20.55 425.05-19.9 424.55-19.03 424.05-18.15 424.05-17.3L424.05-17.3Q424.05-15.85 424.95-15.1 425.85-14.35 427.28-13.88 428.7-13.4 430.28-12.98 431.85-12.55 433.28-11.8 434.7-11.05 435.58-9.7 436.45-8.35 436.45-6.1L436.45-6.1Q436.45-3.15 434.35-1.4 432.25 0.35 428.4 0.35ZM442.9 0L442.9 0Q442.25 0 441.77-0.4 441.3-0.8 441.3-1.3L441.3-1.3 441.3-22.45Q441.3-23 441.77-23.33 442.25-23.65 442.9-23.65L442.9-23.65Q443.6-23.65 444.07-23.33 444.55-23 444.55-22.45L444.55-22.45 444.55-1.3Q444.55-0.8 444.07-0.4 443.6 0 442.9 0ZM442.9-30.65L442.9-30.65Q442-30.65 441.35-31.28 440.7-31.9 440.7-32.75L440.7-32.75Q440.7-33.6 441.35-34.2 442-34.8 442.9-34.8L442.9-34.8Q443.85-34.8 444.47-34.2 445.1-33.6 445.1-32.75L445.1-32.75Q445.1-31.9 444.47-31.28 443.85-30.65 442.9-30.65ZM460 0L458.6 0Q454.75 0 452.7-1.75 450.65-3.5 450.65-7.35L450.65-7.35 450.65-33.7Q450.65-34.25 451.17-34.58 451.7-34.9 452.25-34.9L452.25-34.9Q452.9-34.9 453.4-34.58 453.9-34.25 453.9-33.7L453.9-33.7 453.9-23.65 460.4-23.65Q460.9-23.65 461.2-23.25 461.5-22.85 461.5-22.3L461.5-22.3Q461.5-21.75 461.2-21.35 460.9-20.95 460.4-20.95L460.4-20.95 453.9-20.95 453.9-7.35Q453.9-4.9 454.95-3.93 456-2.95 458.6-2.95L458.6-2.95 460-2.95Q460.7-2.95 461.07-2.53 461.45-2.1 461.45-1.5L461.45-1.5Q461.45-0.9 461.07-0.45 460.7 0 460 0L460 0ZM474.94 0.35L474.94 0.35Q471.79 0.35 469.37-0.85 466.94-2.05 465.57-4.17 464.19-6.3 464.19-9.15L464.19-9.15 464.19-14.75Q464.19-17.25 465.49-19.35 466.79-21.45 468.97-22.7 471.14-23.95 473.74-23.95L473.74-23.95Q476.24-23.95 478.37-22.78 480.49-21.6 481.79-19.55 483.09-17.5 483.09-14.85L483.09-14.85Q483.09-12.9 482.44-12.08 481.79-11.25 480.82-11.05 479.84-10.85 478.74-10.85L478.74-10.85 467.44-10.85 467.44-9Q467.44-6 469.59-4.25 471.74-2.5 475.04-2.5L475.04-2.5Q477.04-2.5 478.14-3 479.24-3.5 479.87-4 480.49-4.5 481.04-4.5L481.04-4.5Q481.44-4.5 481.77-4.23 482.09-3.95 482.27-3.6 482.44-3.25 482.44-2.95L482.44-2.95Q482.44-2.4 481.54-1.6 480.64-0.8 478.94-0.23 477.24 0.35 474.94 0.35ZM467.44-15.15L467.44-13.25 477.44-13.25Q478.94-13.25 479.44-13.58 479.94-13.9 479.94-14.95L479.94-14.95Q479.94-16.55 479.17-18 478.39-19.45 476.97-20.35 475.54-21.25 473.69-21.25L473.69-21.25Q471.99-21.25 470.57-20.43 469.14-19.6 468.29-18.23 467.44-16.85 467.44-15.15L467.44-15.15Z" opacity="1" transform="matrix(1,0,0,1,0,0)" fill="#000000" class="undefined-text-1" data-fill-palette-color="secondary" id="text-1"></path></svg></g></svg></g></svg></g></svg></g><g transform="matrix(1,0,0,1,115.65817662521492,0)"><svg viewBox="0 0 164.20364674957014 164.20364674957014" height="164.20364674957014" width="164.20364674957014"><g><svg></svg></g><g id="icon-0"><svg viewBox="0 0 164.20364674957014 164.20364674957014" height="164.20364674957014" width="164.20364674957014"><g><path d="M0 82.102c0-45.344 36.758-82.102 82.102-82.102 45.344 0 82.102 36.758 82.102 82.102 0 45.344-36.758 82.102-82.102 82.102-45.344 0-82.102-36.758-82.102-82.102zM82.102 160.689c43.403 0 78.587-35.185 78.587-78.587 0-43.403-35.185-78.587-78.587-78.588-43.403 0-78.587 35.185-78.588 78.588 0 43.403 35.185 78.587 78.588 78.587z" data-fill-palette-color="accent" fill="#000000" stroke="transparent"></path><ellipse rx="81.28080514103722" ry="81.28080514103722" cx="82.10182337478507" cy="82.10182337478507" fill="#000000" stroke="transparent" stroke-width="0" fill-opacity="1" data-fill-palette-color="accent"></ellipse></g><g transform="matrix(1,0,0,1,35.585618550456616,35.17411707676053)"><svg viewBox="0 0 93.03240964865691 93.85541259604908" height="93.85541259604908" width="93.03240964865691"><g><svg xmlns="http://www.w3.org/2000/svg" xmlns:xlink="http://www.w3.org/1999/xlink" version="1.1" x="0" y="0" viewBox="2.189999580383301 2.20910382270813 95.62000274658203 96.46589660644531" enable-background="new 0 0 100 100.883" xml:space="preserve" height="93.85541259604908" width="93.03240964865691" class="icon-x-0" data-fill-palette-color="quaternary" id="x-0"><path fill="#77d4fc" d="M90.553 30.603H49.866l15.51-26.119c0.356-0.825-0.022-1.784-0.85-2.141-0.825-0.356-1.784 0.022-2.141 0.848L46.574 29.818l-8.997-18.057c-0.4-0.806-1.379-1.133-2.184-0.732-0.806 0.401-1.133 1.379-0.731 2.184l8.664 17.39H9.447c-4.008 0-7.257 3.249-7.257 7.259v53.554c0 4.009 3.249 7.259 7.257 7.259h81.105c4.008 0 7.258-3.249 7.258-7.259V37.861C97.811 33.853 94.561 30.603 90.553 30.603zM81.652 38.561h7.899c0.896 0 1.621 0.727 1.621 1.623s-0.727 1.622-1.621 1.622h-7.899c-0.896 0-1.623-0.727-1.623-1.622C80.029 39.287 80.756 38.561 81.652 38.561zM58.873 63.792h0.06l0.587 0.108c-0.008 0.464-0.041 0.922-0.106 1.369-0.186 2.454-0.809 4.716-1.756 6.613-1.722 3.451-4.51 5.694-7.657 5.694-4.798 0-8.762-5.214-9.384-11.973 0 0 3.788-0.629 6.05-1.521 0 0 4.099-1.368 9.104-4.973 0.024-0.019 0.05-0.036 0.075-0.055 0 0 0.09 0.13 0.217 0.35 0.435 0.744 1.365 2.964-0.395 3.979L58.873 63.792zM43.923 76.497c1.73 1.728 3.823 2.739 6.077 2.739 2.202 0 4.251-0.966 5.958-2.621l-1.26 2.621c0.422-0.695 2.009-0.882 3.869-0.836-0.296 1.784-2.395 3.281-5.288 3.937L50 87.665l-3.279-5.327c-2.382-0.54-4.223-1.652-4.965-3.024 1.922 0.167 3.551 0.52 3.973 1.211L43.923 76.497zM71.367 90.4c-0.682-5.569-4.594-10.137-9.805-11.779 2.432 0.272 4.564 0.69 4.564 0.69-4.853-2.666-4.728-12.242-4.728-12.242 0.849-18.545-11.39-17.575-11.39-17.575L50 49.522l-0.009-0.029c0 0-12.239-0.97-11.391 17.575 0 0 0.125 9.576-4.728 12.242 0 0 1.306-0.088 3.053-0.12-4.538 2.026-7.812 6.369-8.325 11.524H12.303c-2.394 0-4.335-1.94-4.335-4.333V42.895c0-2.394 1.94-4.334 4.335-4.334h57.443c2.393 0 4.333 1.941 4.333 4.334v43.488h0.002C74.081 88.202 72.957 89.757 71.367 90.4zM78.951 70.211c-1.189 0-2.155-0.967-2.155-2.157 0-1.189 0.966-2.155 2.155-2.155 1.19 0 2.155 0.966 2.155 2.155C81.106 69.245 80.142 70.211 78.951 70.211zM85.601 70.211c-1.19 0-2.155-0.967-2.155-2.157 0-1.189 0.965-2.155 2.155-2.155 1.191 0 2.156 0.966 2.156 2.155C87.757 69.245 86.792 70.211 85.601 70.211zM85.603 59.638c-3.383 0-6.122-2.741-6.122-6.121v-0.001-0.001c0-3.38 2.739-6.121 6.122-6.121 3.38 0 6.121 2.741 6.12 6.121v0.001 0.001C91.724 56.896 88.982 59.638 85.603 59.638zM92.251 70.211c-1.189 0-2.155-0.967-2.155-2.157 0-1.189 0.966-2.155 2.155-2.155 1.191 0 2.157 0.966 2.157 2.155C94.408 69.245 93.442 70.211 92.251 70.211z" data-fill-palette-color="quaternary"></path><g fill="#77d4fc" data-fill-palette-color="quaternary"><path fill="#77d4fc" d="M21.16 51.525c1.42 0 2.604-1.898 2.866-3.453 0.001-0.016 0.073-1.378-0.918-1.303 0 0-3.443 0.683-3.941-0.834 0 0-0.743 0.617-0.898 1.961C18.466 49.479 19.685 51.525 21.16 51.525zM23.843 47.455h-0.002c0-0.002 0-0.005 0-0.007C23.841 47.45 23.842 47.453 23.843 47.455z" data-fill-palette-color="quaternary"></path><path fill="#77d4fc" d="M31.353 41.672H10.964c-0.771 0-1.396 0.625-1.396 1.396v15.561c0 0.771 0.625 1.396 1.396 1.396h20.389c0.771 0 1.396-0.625 1.396-1.396V43.068C32.75 42.297 32.125 41.672 31.353 41.672zM21.16 44.098c1.843 0 3.337 1.494 3.337 3.336 0 1.843-1.494 4.613-3.337 4.613s-3.337-2.77-3.337-4.613C17.823 45.591 19.317 44.098 21.16 44.098zM23.219 57.599h-4.121c-2.21 0-4.002 0.12-4.002-2.09 0-2.086 1.596-3.798 3.633-3.984 0.016 0.729 1.097 1.318 2.429 1.318 1.332 0 2.413-0.589 2.429-1.318 2.037 0.187 3.633 1.898 3.633 3.984C27.221 57.719 25.43 57.599 23.219 57.599z" data-fill-palette-color="quaternary"></path></g><polygon fill="#77d4fc" points="51.178,47.455 51.176,47.448 51.176,47.455 " data-fill-palette-color="quaternary"></polygon></svg></g></svg></g></svg></g></svg></g><g></g></svg></g></svg><rect width="390.61456294451074" height="247.2" fill="none" stroke="none" visibility="hidden"></rect></g></svg></g></svg>